<svg width="183" height="50" viewBox="0 0 183 50" fill="none" xmlns="http://www.w3.org/2000/svg">
<path d="M3.48968 42.7211H0.620911V41.7363H7.52521V42.7211H4.65645V49.8502H3.48968V42.7211Z" fill="#0D2333"/>
<path d="M8.71326 41.7363H13.5623V42.7211H9.89074V45.2687H12.8772V46.2535H9.89074V48.8654H13.7657V49.8502H8.71326V41.7363Z" fill="#0D2333"/>
<path d="M19.118 41.5971C21.1304 41.5971 22.158 42.6675 22.158 42.6675L21.58 43.5132C21.58 43.5132 20.6166 42.6247 19.1715 42.6247C17.309 42.6247 16.0887 44.0056 16.0887 45.729C16.0887 47.4524 17.3304 48.9296 19.1929 48.9296C20.7665 48.9296 21.7727 47.8698 21.7727 47.8698L22.3935 48.6834C22.3935 48.6834 21.2482 49.9679 19.1501 49.9679C16.6453 49.9679 14.8791 48.1053 14.8791 45.729C14.8791 43.3526 16.6988 41.5757 19.1287 41.5757" fill="#0D2333"/>
<path d="M23.9775 41.7363H25.1443V45.3008H29.4796V41.7363H30.6463V49.8502H29.4796V46.2856H25.1443V49.8502H23.9775V41.7363Z" fill="#0D2333"/>
<path d="M32.9158 41.7363H34.0719L37.7863 47.0135C38.0967 47.4524 38.4821 48.1803 38.4821 48.1803H38.5035C38.5035 48.1803 38.4179 47.4524 38.4179 47.0135V41.7363H39.5846V49.8502H38.4393L34.7142 44.5836C34.4037 44.134 34.0184 43.3954 34.0184 43.3954H33.997C33.997 43.3954 34.0826 44.1126 34.0826 44.5836V49.8502H32.9158V41.7363Z" fill="#0D2333"/>
<path d="M45.6001 41.5971C48.0086 41.5971 49.8818 43.3954 49.8818 45.729C49.8818 48.0625 48.0193 49.9786 45.6001 49.9786C43.1809 49.9786 41.3076 48.1161 41.3076 45.729C41.3076 43.3419 43.1916 41.5971 45.6001 41.5971ZM45.6001 48.9403C47.3021 48.9403 48.6722 47.5594 48.6722 45.729C48.6722 43.8985 47.3021 42.6247 45.6001 42.6247C43.8981 42.6247 42.5065 43.9521 42.5065 45.729C42.5065 47.5059 43.8874 48.9403 45.6001 48.9403Z" fill="#0D2333"/>
<path d="M51.5842 41.7363H52.751V48.8654H56.4868V49.8502H51.5842V41.7363Z" fill="#0D2333"/>
<path d="M61.3573 41.5971C63.7658 41.5971 65.639 43.3954 65.639 45.729C65.639 48.0625 63.7658 49.9786 61.3573 49.9786C58.9488 49.9786 57.0648 48.1161 57.0648 45.729C57.0648 43.3419 58.9488 41.5971 61.3573 41.5971ZM61.3573 48.9403C63.0593 48.9403 64.4401 47.5594 64.4401 45.729C64.4401 43.8985 63.07 42.6247 61.3573 42.6247C59.6446 42.6247 58.2744 43.9521 58.2744 45.729C58.2744 47.5059 59.6553 48.9403 61.3573 48.9403Z" fill="#0D2333"/>
<path d="M71.0445 41.5971C73.0462 41.5971 74.0846 42.5712 74.0846 42.5712L73.4958 43.4168C73.4958 43.4168 72.5646 42.6247 71.1409 42.6247C69.1713 42.6247 67.9938 44.0163 67.9938 45.7504C67.9938 47.6344 69.3211 48.9403 71.0659 48.9403C72.511 48.9403 73.4316 47.9234 73.4316 47.9234V46.7566H72.0721V45.7718H74.502V49.8502H73.4744V49.3471C73.4744 49.1758 73.4744 49.0045 73.4744 49.0045H73.453C73.453 49.0045 72.5431 49.9893 70.884 49.9893C68.6361 49.9893 66.7735 48.2659 66.7735 45.7825C66.7735 43.4383 68.5932 41.5971 71.0338 41.5971" fill="#0D2333"/>
<path d="M78.0883 46.4141L75.2838 41.7363H76.6111L78.1632 44.4016C78.4201 44.8512 78.677 45.4293 78.677 45.4293H78.6984C78.6984 45.4293 78.9446 44.8619 79.2123 44.4016L80.743 41.7363H82.0703L79.2765 46.4141V49.8502H78.099V46.4141H78.0883Z" fill="#0D2333"/>
<path d="M86.3413 48.0625C86.3413 48.0625 87.2298 48.9296 88.4715 48.9296C89.2529 48.9296 89.9166 48.5121 89.9166 47.7307C89.9166 45.9752 85.8703 46.3498 85.8703 43.8557C85.8703 42.5926 86.9943 41.5971 88.5678 41.5971C90.1414 41.5971 90.9335 42.4106 90.9335 42.4106L90.3983 43.3526C90.3983 43.3526 89.6276 42.6568 88.5678 42.6568C87.6794 42.6568 87.0585 43.2028 87.0585 43.845C87.0585 45.5256 91.1048 45.076 91.1048 47.7093C91.1048 48.9617 90.1093 50 88.4501 50C86.6732 50 85.6884 48.9296 85.6884 48.9296L86.352 48.0625H86.3413Z" fill="#0D2333"/>
<path d="M96.5104 41.5971C98.9188 41.5971 100.792 43.3954 100.792 45.729C100.792 48.0625 98.9295 49.9786 96.5104 49.9786C94.0912 49.9786 92.2179 48.1161 92.2179 45.729C92.2179 43.3419 94.1019 41.5971 96.5104 41.5971ZM96.5104 48.9403C98.2124 48.9403 99.5825 47.5594 99.5825 45.729C99.5825 43.8985 98.2124 42.6247 96.5104 42.6247C94.8084 42.6247 93.4168 43.9521 93.4168 45.729C93.4168 47.5059 94.7977 48.9403 96.5104 48.9403Z" fill="#0D2333"/>
<path d="M102.494 41.7363H103.671V48.8654H107.407V49.8502H102.494V41.7363Z" fill="#0D2333"/>
<path d="M108.489 41.7363H109.656V46.9814C109.656 48.2231 110.491 48.951 111.764 48.951C113.038 48.951 113.895 48.2338 113.895 46.96V41.747H115.072V46.9921C115.072 48.7904 113.734 50 111.786 50C109.838 50 108.5 48.7904 108.5 46.9921V41.747L108.489 41.7363Z" fill="#0D2333"/>
<path d="M119.011 42.7211H116.142V41.7363H123.046V42.7211H120.177V49.8502H119.011V42.7211Z" fill="#0D2333"/>
<path d="M125.412 41.7363H124.235V49.8502H125.412V41.7363Z" fill="#0D2333"/>
<path d="M131.406 41.5971C133.815 41.5971 135.688 43.3954 135.688 45.729C135.688 48.0625 133.825 49.9786 131.406 49.9786C128.987 49.9786 127.114 48.1161 127.114 45.729C127.114 43.3419 128.998 41.5971 131.406 41.5971ZM131.406 48.9403C133.108 48.9403 134.478 47.5594 134.478 45.729C134.478 43.8985 133.108 42.6247 131.406 42.6247C129.704 42.6247 128.313 43.9521 128.313 45.729C128.313 47.5059 129.694 48.9403 131.406 48.9403Z" fill="#0D2333"/>
<path d="M137.39 41.7363H138.547L142.261 47.0135C142.571 47.4524 142.957 48.1803 142.957 48.1803H142.978C142.978 48.1803 142.892 47.4524 142.892 47.0135V41.7363H144.059V49.8502H142.914L139.189 44.5836C138.878 44.134 138.493 43.3954 138.493 43.3954H138.472C138.472 43.3954 138.557 44.1126 138.557 44.5836V49.8502H137.39V41.7363Z" fill="#0D2333"/>
<path d="M146.372 48.0625C146.372 48.0625 147.26 48.9296 148.502 48.9296C149.283 48.9296 149.947 48.5121 149.947 47.7307C149.947 45.9752 145.901 46.3498 145.901 43.8557C145.901 42.5926 147.024 41.5971 148.598 41.5971C150.172 41.5971 150.964 42.4106 150.964 42.4106L150.439 43.3526C150.439 43.3526 149.668 42.6568 148.609 42.6568C147.72 42.6568 147.099 43.2028 147.099 43.845C147.099 45.5256 151.146 45.076 151.146 47.7093C151.146 48.9617 150.15 50 148.502 50C146.725 50 145.729 48.9296 145.729 48.9296L146.393 48.0625H146.372Z" fill="#0D2333"/>
<path d="M182.049 34.3396H155.127V39.0602H182.049V34.3396Z" fill="#00AFD7"/>
<path d="M18.176 9.73025C17.4695 6.73303 14.7827 5.19161 12.0424 5.19161C9.30208 5.19161 7.40741 6.51895 7.40741 8.31728C7.40741 10.715 10.897 11.5714 14.7827 12.8559C19.2785 14.3545 24.4487 16.6774 24.4487 22.0295C24.4487 27.3817 19.6853 31.2032 12.6204 31.2032C6.13359 31.2032 1.66988 27.6493 0 22.2008L5.9088 20.6594C6.57247 23.3569 9.04517 25.8938 12.8773 25.8938C16.185 25.8938 17.9084 24.3096 17.9084 22.2972C17.9084 19.2571 13.7123 18.5292 9.34489 17.0199C5.68401 15.7354 1.09184 13.8942 1.09184 8.65982C1.09184 3.98202 5.85528 0 12.3849 0C18.1653 0 22.7574 3.42539 24.0848 8.14601L18.1653 9.73025H18.176Z" fill="#0D2333"/>
<path d="M52.4192 0.599487L40.5053 16.8487V30.6038H34.4145V16.8487L22.5434 0.599487H29.4263L35.7847 9.21649C36.6196 10.4154 37.4224 11.443 37.4653 11.443H37.5081C37.5081 11.443 38.3537 10.4154 39.1887 9.21649L45.4935 0.599487H52.4192Z" fill="#0D2333"/>
<path d="M68.5398 9.73025C67.8333 6.73303 65.1465 5.19161 62.4062 5.19161C59.6659 5.19161 57.7712 6.51895 57.7712 8.31728C57.7712 10.715 61.2608 11.5714 65.1465 12.8559C69.653 14.3545 74.8125 16.6774 74.8125 22.0295C74.8125 27.3817 70.0491 31.2032 62.9842 31.2032C56.4974 31.2032 52.0444 27.6493 50.3638 22.2008L56.2833 20.6594C56.947 23.3569 59.4197 25.8938 63.2518 25.8938C66.5595 25.8938 68.2829 24.3096 68.2829 22.2972C68.2829 19.2571 64.0868 18.5292 59.7194 17.0199C56.0585 15.7354 51.4663 13.8942 51.4663 8.65982C51.4663 3.99272 56.2298 0 62.7701 0C68.5505 0 73.1426 3.42539 74.47 8.14601L68.5505 9.73025H68.5398Z" fill="#0D2333"/>
<path d="M101.906 0.599487V6.17645H92.1967V30.6038H86.0631V6.17645H76.4399V0.599487H101.906Z" fill="#00AFD7"/>
<path d="M152.398 25.0375V30.6038H130.989V0.599487H137.123V25.0375H152.398Z" fill="#00AFD7"/>
<path d="M121.195 30.6038H127.81L115.104 0.599487H109.323L96.6067 30.6038H103.211L110.694 11.9889C111.357 10.319 112.149 7.83563 112.192 7.83563H112.235C112.235 7.83563 113.081 10.319 113.734 11.9996L116.774 19.589L121.184 30.6038H121.195Z" fill="#00AFD7"/>
</svg>
